<svg width="176" height="52" viewBox="0 0 176 52" fill="none" xmlns="http://www.w3.org/2000/svg">
<g id="Yandex Go Ru black">
<g id="Go">
<path id="black" d="M139.016 0.935547H158.478C163.125 0.936031 167.581 2.78168 170.867 6.06658C174.153 9.35148 176 13.8066 176 18.4522V33.5494C176 35.8496 175.547 38.1273 174.666 40.2524C173.786 42.3775 172.495 44.3084 170.868 45.9348C169.241 47.5612 167.309 48.8513 165.183 49.7314C163.057 50.6115 160.779 51.0644 158.478 51.0641H139.216C136.915 51.0644 134.637 50.6115 132.511 49.7314C130.385 48.8513 128.454 47.5612 126.826 45.9348C125.199 44.3084 123.909 42.3775 123.028 40.2524C122.147 38.1273 121.694 35.8496 121.694 33.5494V18.4522C121.694 8.7763 129.336 0.935547 139.016 0.935547Z" fill="#21201F"/>
<g id="Go_2">
<path d="M143.778 29.2782V28.4273H138.652V24.6402H148.646V29.1449C148.646 36.2352 145.259 40.3546 138.853 40.3546C132.247 40.3546 128.41 35.1506 128.41 25.975C128.41 17.0277 132.597 11.5498 140.279 11.5498C143.181 11.5498 145.684 12.3185 147.052 13.3192V17.2176C145.087 16.0003 142.824 15.3477 140.513 15.3314C135.475 15.3314 133.339 18.7515 133.339 25.975C133.339 32.9813 135.108 36.5657 138.944 36.5657C142.609 36.584 143.778 33.7482 143.778 29.2782Z" fill="white"/>
<path d="M169.371 29.8114C169.371 36.6187 165.701 40.3711 160.423 40.3711C155.146 40.3711 151.476 36.6187 151.476 29.8625C151.476 23.0553 155.146 19.3029 160.423 19.3029C165.701 19.3029 169.371 23.0389 169.371 29.8114ZM164.415 29.8114C164.415 25.1406 163.08 23.09 160.429 23.09C157.778 23.09 156.441 25.1406 156.441 29.8625C156.441 34.5334 157.776 36.5858 160.429 36.5858C163.082 36.5858 164.415 34.517 164.415 29.8114Z" fill="white"/>
</g>
</g>
<path id="yandex" d="M13.746 15.7505H11.5548C7.57416 15.7505 5.47794 17.7682 5.47794 20.7536C5.47794 24.1408 6.92776 25.7093 9.91507 27.7271L12.3674 29.3796L5.27708 39.9702H0L6.35623 30.4952C2.68602 27.8768 0.633615 25.3423 0.633615 21.0221C0.633615 15.6172 4.38235 11.9634 11.5037 11.9634H18.5921V39.9721H13.7295V15.7505H13.746ZM38.6359 19.7037V39.9721H33.8482V31.5141H27.4408V39.9721H22.6531V19.7037H27.4408V27.7271H33.8482V19.7037H38.6359ZM60.2719 44.5936H55.8348V39.9556H45.0743V44.5936H40.6372V36.1777H42.1381C43.8235 32.7905 44.1576 26.385 44.1576 21.4311V19.6964H58.1355V36.1777H60.2719V44.5936ZM53.3478 23.4908H48.2771V24.0915C48.2771 27.5938 47.9119 33.1155 46.5752 36.185H53.3478V23.4908ZM71.0306 40.3555C64.9099 40.3555 61.4387 36.9355 61.4387 29.8799C61.4387 23.7574 64.2252 19.2892 70.0646 19.2892C74.8523 19.2892 77.9547 21.957 77.9547 28.9979V31.5324H66.3944C66.5934 34.9196 67.9282 36.5703 71.4323 36.5703C73.7677 36.5703 76.2693 35.6865 77.7538 34.6694V38.588C76.3533 39.5557 74.1001 40.3555 71.0306 40.3555ZM66.3944 27.9936H73.083V27.5956C73.083 25.0611 72.3526 23.0927 69.9788 23.0927C67.6945 23.0726 66.5277 24.7744 66.3944 27.9936ZM85.978 30.0132V39.9721H81.1739V19.7037H85.978V29.0454L92.7597 19.7037H97.5986L90.826 29.0454L98.5152 39.9556H93.0683L85.978 30.0132ZM98.2395 29.847C98.2395 23.6734 101.426 19.2874 107.552 19.2874C109.926 19.2874 111.706 19.6873 112.707 20.2533V24.3253C111.739 23.7245 109.92 23.0726 108.069 23.0726C104.932 23.0726 103.197 25.3259 103.197 29.7302C103.197 33.9171 104.616 36.5849 108.036 36.5849C110.054 36.5849 111.505 36.0681 112.707 35.2172V39.1212C111.538 39.9721 109.968 40.372 107.751 40.372C101.342 40.3555 98.2377 36.6196 98.2377 29.847H98.2395Z" fill="#21201F"/>
</g>
</svg>
